<svg id="LOGO" xmlns="http://www.w3.org/2000/svg" viewBox="0 0 116.41 116.41"><g id="UNIFYING_-_Black" data-name="UNIFYING - Black"><path id="BODY" d="M110.74,17.27C99.23,5.77,85.23,5.79,64,5.79c-19.4,0-35.27,0-46.73,11.48S5.79,43.57,5.79,64c0,19.4,0,35.25,11.47,46.75S44.6,122.21,64,122.21c19.63,0,35.28,0,46.74-11.46S122.21,83.4,122.21,64C122.21,43.43,122.19,28.73,110.74,17.27Zm-5.43,52.66-19,1.72a5.52,5.52,0,0,0-4.51,7.82l8,17.33c3,6.59-6.1,11.87-10.28,5.94l-11-15.62a5.53,5.53,0,0,0-9,0l-11,15.61c-4.18,5.94-13.33.66-10.28-5.93l8-17.33a5.52,5.52,0,0,0-4.51-7.82l-19-1.72c-7.23-.65-7.23-11.21,0-11.86l19-1.72a5.52,5.52,0,0,0,4.52-7.82l-8-17.33c-3.05-6.59,6.1-11.87,10.27-5.94l11,15.62a5.53,5.53,0,0,0,9,0l11-15.61c4.18-5.94,13.33-.66,10.28,5.93l-8,17.33a5.52,5.52,0,0,0,4.51,7.82l19,1.72C112.54,58.72,112.54,69.28,105.31,69.93Z" transform="translate(-5.79 -5.79)"/><path id="INNER_SQUIRCLE" data-name="INNER SQUIRCLE" d="M73.09,64c0,3-.52,5.55-2,7.06s-4,2-7.06,2-5.55-.52-7.06-2-2-4-2-7.06c0-3.19.53-5.54,2-7s4-2,7-2c3.31,0,5.59.46,7,2S73.09,60.79,73.09,64Z" transform="translate(-5.79 -5.79)"/></g></svg>