<?xml version="1.0" encoding="utf-8"?>
<svg viewBox="0 0 512 512" style="enable-background:new 0 0 512 512;" xmlns="http://www.w3.org/2000/svg">
  <g transform="matrix(1, 0, 0, 1, 1, 1)">
    <g transform="matrix(1.017241, 0, 0, 1.017241, 0.017241, -4.396569)">
      <path style="fill: rgb(99, 211, 253);" d="M 499.072 255 L 268.017 255 L 268.017 12.017 L 449.56 12.017 C 476.791 12.017 499.072 35.448 499.072 64.085 L 499.072 255 Z"/>
      <path style="fill: rgb(255, 225, 0);" d="M 268.017 255 L 499.072 255 L 499.072 445.915 C 499.072 474.552 476.791 497.983 449.56 497.983 L 268.017 497.983 L 268.017 255 Z"/>
      <path style="fill:#3DB9F9;" d="M 493.644 255 L 250.661 255 L 250.661 12.017 L 441.576 12.017 C 470.213 12.017 493.644 35.448 493.644 64.085 L 493.644 255 Z"/>
      <path style="fill:#63D3FD;" d="M 467.61 255 L 250.661 255 L 250.661 12.017 L 415.542 12.017 C 444.179 12.017 467.61 35.448 467.61 64.085 L 467.61 255 Z"/>
      <path style="fill:#FFFFFF;" d="M 7.678 255 L 250.661 255 L 250.661 497.983 L 59.746 497.983 C 31.109 497.983 7.678 474.552 7.678 445.915 L 7.678 255 L 7.678 255 Z"/>
      <path style="fill: rgb(99, 211, 253);" d="M 3.432 255 L 250.661 255 L 250.661 497.983 L 62.768 497.983 C 30.134 497.983 3.432 474.552 3.432 445.915 L 3.432 255 Z"/>
      <path style="fill:#FFFFFF;" d="M 250.661 255 L 7.678 255 L 7.678 64.085 C 7.678 35.448 31.109 12.017 59.746 12.017 L 250.661 12.017 L 250.661 255 Z"/>
      <path style="fill: rgb(255, 225, 0);" d="M 250.661 255 L 3.432 255 L 3.432 64.085 C 3.432 35.448 30.134 12.017 62.768 12.017 L 250.661 12.017 L 250.661 255 Z"/>
      <path style="fill:#FFA800;" d="M 250.661 255 L 493.644 255 L 493.644 445.915 C 493.644 474.552 470.213 497.983 441.576 497.983 L 250.661 497.983 L 250.661 255 Z"/>
      <path style="fill:#FFE100;" d="M 250.661 255 L 467.61 255 L 467.61 445.915 C 467.61 474.552 444.179 497.983 415.542 497.983 L 250.661 497.983 L 250.661 255 Z"/>
      <path d="M 493.644 263.678 L 250.661 263.678 C 245.454 263.678 241.983 260.207 241.983 255 L 241.983 12.017 C 241.983 6.81 245.454 3.339 250.661 3.339 L 441.576 3.339 C 475.42 3.339 502.322 30.241 502.322 64.085 L 502.322 255 C 502.322 260.207 498.851 263.678 493.644 263.678 Z M 259.339 246.322 L 484.966 246.322 L 484.966 64.085 C 484.966 39.787 465.874 20.695 441.576 20.695 L 259.339 20.695 L 259.339 246.322 Z"/>
      <path d="M 250.661 263.678 L 7.678 263.678 C 2.471 263.678 -1 260.207 -1 255 L -1 64.085 C -1 30.241 25.902 3.339 59.746 3.339 L 250.661 3.339 C 255.868 3.339 259.339 6.81 259.339 12.017 L 259.339 255 C 259.339 260.207 255.868 263.678 250.661 263.678 Z M 16.356 246.322 L 241.983 246.322 L 241.983 20.695 L 59.746 20.695 C 35.448 20.695 16.356 39.787 16.356 64.085 L 16.356 246.322 Z"/>
      <path d="M 441.576 506.661 L 250.661 506.661 C 245.454 506.661 241.983 503.19 241.983 497.983 L 241.983 255 C 241.983 249.793 245.454 246.322 250.661 246.322 L 493.644 246.322 C 498.851 246.322 502.322 249.793 502.322 255 L 502.322 445.915 C 502.322 479.759 475.42 506.661 441.576 506.661 Z M 259.339 489.305 L 441.576 489.305 C 465.874 489.305 484.966 470.213 484.966 445.915 L 484.966 263.678 L 259.339 263.678 L 259.339 489.305 Z"/>
      <path d="M 250.661 506.661 L 59.746 506.661 C 25.902 506.661 -1 479.759 -1 445.915 L -1 255 C -1 249.793 2.471 246.322 7.678 246.322 L 250.661 246.322 C 255.868 246.322 259.339 249.793 259.339 255 L 259.339 497.983 C 259.339 503.19 255.868 506.661 250.661 506.661 Z M 16.356 263.678 L 16.356 445.915 C 16.356 470.213 35.448 489.305 59.746 489.305 L 241.983 489.305 L 241.983 263.678 L 16.356 263.678 Z"/>
      <path d="M 129.169 194.254 C 123.962 194.254 120.491 190.783 120.491 185.576 L 120.491 81.441 C 120.491 76.234 123.962 72.763 129.169 72.763 C 134.376 72.763 137.847 76.234 137.847 81.441 L 137.847 185.577 C 137.847 190.783 134.376 194.254 129.169 194.254 Z"/>
      <path d="M 181.237 142.186 L 77.102 142.186 C 71.895 142.186 68.424 138.715 68.424 133.508 C 68.424 128.301 71.895 124.83 77.102 124.83 L 181.238 124.83 C 186.445 124.83 189.916 128.301 189.916 133.508 C 189.915 138.715 186.444 142.186 181.237 142.186 Z"/>
      <path d="M 85.78 428.559 C 83.177 428.559 81.441 427.691 79.705 425.956 C 76.234 422.485 76.234 417.278 79.705 413.807 L 166.485 327.027 C 169.956 323.556 175.163 323.556 178.634 327.027 C 182.105 330.498 182.105 335.705 178.634 339.176 L 91.854 425.956 C 90.119 427.692 88.383 428.559 85.78 428.559 Z"/>
      <path d="M 172.559 428.559 C 169.956 428.559 168.22 427.691 166.484 425.956 L 79.704 339.176 C 76.233 335.705 76.233 330.498 79.704 327.027 C 83.175 323.556 88.382 323.556 91.853 327.027 L 178.633 413.807 C 182.104 417.278 182.104 422.485 178.633 425.956 C 176.898 427.692 175.163 428.559 172.559 428.559 Z"/>
      <path d="M 424.22 142.186 L 320.085 142.186 C 314.878 142.186 311.407 138.715 311.407 133.508 C 311.407 128.301 314.878 124.83 320.085 124.83 L 424.22 124.83 C 429.427 124.83 432.898 128.301 432.898 133.508 C 432.898 138.715 429.427 142.186 424.22 142.186 Z"/>
      <path d="M 424.22 411.203 L 320.085 411.203 C 314.878 411.203 311.407 407.732 311.407 402.525 C 311.407 397.318 314.878 393.847 320.085 393.847 L 424.22 393.847 C 429.427 393.847 432.898 397.318 432.898 402.525 C 432.898 407.732 429.427 411.203 424.22 411.203 Z"/>
      <path d="M 424.22 359.136 L 320.085 359.136 C 314.878 359.136 311.407 355.665 311.407 350.458 C 311.407 345.251 314.878 341.78 320.085 341.78 L 424.22 341.78 C 429.427 341.78 432.898 345.251 432.898 350.458 C 432.898 355.664 429.427 359.136 424.22 359.136 Z"/>
    </g>
  </g>
  <g/>
  <g/>
  <g/>
  <g/>
  <g/>
  <g/>
  <g/>
  <g/>
  <g/>
  <g/>
  <g/>
  <g/>
  <g/>
  <g/>
  <g/>
</svg>